<?xml version="1.0" encoding="UTF-8" standalone="no"?>
<!-- Created with Inkscape (http://www.inkscape.org/) -->

<svg
   width="512"
   height="512"
   viewBox="0 0 512 512"
   version="1.1"
   id="svg1"
   inkscape:export-filename="Documents\furlong\furlong_mobile\furlong\assets\icons\logo.png"
   inkscape:export-xdpi="96"
   inkscape:export-ydpi="96"
   inkscape:version="1.4.2 (f4327f4, 2025-05-13)"
   sodipodi:docname="logo.svg"
   xmlns:inkscape="http://www.inkscape.org/namespaces/inkscape"
   xmlns:sodipodi="http://sodipodi.sourceforge.net/DTD/sodipodi-0.dtd"
   xmlns="http://www.w3.org/2000/svg"
   xmlns:svg="http://www.w3.org/2000/svg">
  <sodipodi:namedview
     id="namedview1"
     pagecolor="#ffffff"
     bordercolor="#000000"
     borderopacity="0.25"
     inkscape:showpageshadow="2"
     inkscape:pageopacity="0.0"
     inkscape:pagecheckerboard="0"
     inkscape:deskcolor="#d1d1d1"
     inkscape:document-units="px"
     inkscape:zoom="1.1396484"
     inkscape:cx="335.19109"
     inkscape:cy="250.07712"
     inkscape:window-width="1619"
     inkscape:window-height="1360"
     inkscape:window-x="633"
     inkscape:window-y="1080"
     inkscape:window-maximized="0"
     inkscape:current-layer="layer1">
    <inkscape:page
       x="0"
       y="0"
       width="512"
       height="512"
       id="page2"
       margin="0"
       bleed="0" />
  </sodipodi:namedview>
  <defs
     id="defs1">
    <clipPath
       clipPathUnits="userSpaceOnUse"
       id="clipPath61">
      <path
         id="path61"
         style="fill:#ff0000;fill-opacity:1;fill-rule:nonzero;stroke:none"
         d="m 0,0 v 513.31641 h 512.43945 v -13.5625 c -0.0818,-0.73629 -0.0767,-1.57757 0,-2.54688 V 0 Z" />
    </clipPath>
    <clipPath
       clipPathUnits="userSpaceOnUse"
       id="clipPath35">
      <path
         id="path36"
         style="fill:#ff0000;fill-opacity:1;fill-rule:nonzero;stroke:none"
         d="M 44.78762,49.805509 V 486.92856 c 3.022116,0.17436 6.044395,0.34665 9.064453,0.55078 0.756231,-2.04129 1.696887,-3.95962 2.835937,-5.17383 0.88451,-5.46148 1.914129,-10.89922 3.246094,-16.26953 -7.797913,-2.02645 -11.212751,-7.89238 -9.886719,-13.87305 -10.000942,-10.42524 -1.117897,-29.11309 26.146485,-33.98047 5.048127,-0.90122 10.267558,-1.15075 15.386719,-1.48242 10.044221,-0.54829 20.105551,-0.68491 30.162111,-0.80273 8.53152,-0.0809 17.06194,-0.10842 25.59375,-0.13672 40.53859,-0.13467 40.67531,40.8166 0.13672,40.95117 -7.92686,0.0263 -15.85453,0.0503 -23.78125,0.11914 -1.55585,1.28659 -3.22236,2.3716 -4.72657,3.19727 -4.43337,1.98697 -9.06416,3.37832 -13.89648,4.01562 -3.99917,0.49222 -7.995176,0.75343 -12.027344,0.67383 -0.913245,0.0156 -1.826846,0.0312 -2.740234,0.0488 -0.679111,2.29694 -1.303224,4.61109 -1.929688,6.92968 -1.680258,6.4949 -2.822123,13.10804 -3.800781,19.74219 0.661976,0.1432 1.32313,0.29352 1.982422,0.45117 4.013905,0.98373 10.093607,2.33606 13.365234,4.92383 2.720501,2.15184 6.127261,4.03495 7.490231,7.22461 3.7562,8.79036 4.33482,12.39032 3.06641,16.31836 2.13939,0.006 4.27889,0.0168 6.41797,0.0332 5.28094,0.043 10.56099,0.0978 15.83984,0.26172 6.20352,0.22229 12.40055,0.59634 18.57227,1.28125 9.92679,1.08763 19.85061,2.22832 29.74023,3.61719 14.12718,2.02084 28.29096,3.82115 42.52344,4.92383 17.76989,1.50497 35.54773,2.85285 53.3457,3.98828 18.4145,1.331 36.84974,2.33251 55.29102,3.21484 19.49862,1.04516 38.9982,2.06433 58.51172,2.79883 18.4084,0.76098 36.8088,1.76439 55.23437,2.02149 14.60637,0.32195 29.22286,0.6411 43.82813,0.0684 7.78325,-0.34758 15.72673,-0.51788 23.06445,-3.45312 4.43919,-1.85873 8.79185,-3.93069 12.51758,-7.03711 2.6765,-2.27777 5.25199,-4.65242 6.93555,-7.79687 0.0878,-0.18749 0.1734,-0.37514 0.25585,-0.56446 -1.94842,-1.31445 -3.30387,-3.94551 -4.83398,-5.81445 -1.9279,-2.35481 -3.48391,-8.75239 -4.33008,-11.88672 -10.70985,-1.96655 -12.07317,-3.03576 -10.42773,-12.67187 1.33287,-5.87833 3.03841,-11.65587 4.56836,-17.48438 0.61637,-1.8446 2.39753,-7.9563 4.11328,-8.45117 1.7235,-0.49711 3.4893,-0.95888 5.27734,-1.34375 -0.022,-1.54381 -0.027,-3.08628 -0.004,-4.63086 v -0.002 c 0.18604,-12.06747 5.43537,-19.05313 11.41406,-20.95899 0.6764,-12.09212 1.34031,-24.18762 1.29883,-36.30273 -0.009,-14.94333 -0.0176,-29.88681 -0.0625,-44.83008 -0.0427,-11.53817 -0.0798,-23.07712 -0.31836,-34.61328 -0.21736,-8.92555 -0.54068,-17.8467 -1.03321,-26.76172 -0.3391,-8.07779 -0.77861,-16.16308 -1.92578,-24.17383 -1.25833,-8.7791 -2.67045,-17.53045 -4.65039,-26.18164 -1.89833,-8.61871 -4.02799,-17.18416 -6.19726,-25.73828 -1.86003,-7.50718 -3.80652,-14.99267 -5.81641,-22.46094 -1.39588,-5.8225 -2.6158,-11.68594 -3.37891,-17.625 -3.44149,-3.46592 -5.89143,-9.30216 -5.97656,-17.52539 -0.10563,-10.2031 0.1994,-20.4193 1.29297,-30.57031 0.24839,-1.92278 0.50649,-3.8482 0.80664,-5.76758 -0.0375,-0.32095 -0.0476,-0.6466 -0.0625,-0.96875 -0.0335,-0.84389 -0.0399,-1.68878 -0.0469,-2.5332 -0.011,-0.92013 -0.005,-1.83994 0.0195,-2.75977 0.0217,-0.86527 0.066,-1.72928 0.10742,-2.59375 0.0414,-0.87261 0.0592,-1.74572 0.0723,-2.61914 0.0118,-0.90008 0.0146,-1.80102 0.0176,-2.70117 0.002,-0.76242 0.003,-1.52468 0.004,-2.28711 0.002,-0.6041 -0.0125,-1.20849 -0.0215,-1.8125 -0.002,-0.30964 -0.008,-0.6185 -0.0137,-0.92773 -0.0111,-0.11906 -0.0237,-0.23783 -0.0332,-0.35743 -0.003,-0.0435 -0.006,-0.0871 -0.008,-0.13086 -0.0448,-0.37739 -0.0915,-0.75482 -0.12891,-1.13281 -0.0351,-0.30086 -0.0678,-0.60112 -0.0996,-0.90234 -0.025,-0.23692 -2.1e-4,-0.43293 0.0566,-0.58594 -0.002,-0.0177 -0.004,-0.035 -0.006,-0.0527 -0.0483,-0.40027 0.0437,-0.696 0.19727,-0.87305 0.002,-0.10077 0.005,-0.202 0.008,-0.30274 0.01,-0.26442 0.0234,-0.52677 0.0371,-0.79101 0.0307,-0.59303 0.32668,-0.89441 0.62695,-0.91602 0.34032,-0.0245 0.68519,0.30836 0.65039,0.98047 -0.0132,0.25435 -0.0271,0.50916 -0.0371,0.76367 -0.0183,0.64401 -0.0285,1.28931 -0.0195,1.9336 0.004,0.56438 0.008,1.12714 0.0215,1.6914 0.003,0.14289 0.007,0.28662 0.01,0.42969 0.0481,0.4524 0.085,0.90525 0.11133,1.35938 0.0235,0.38438 0.0505,0.76799 0.0742,1.15234 0.0241,0.3199 0.0457,0.64108 0.0703,0.96094 0.0181,0.29221 0.0543,0.58148 0.0801,0.87304 8.3e-4,0.009 5.5e-4,0.0181 0.002,0.0274 0.36154,-4.39141 0.82323,-8.7736 1.43164,-13.138674 0.54894,-5.04196 1.01673,-10.09475 1.78711,-15.10937 0.61261,-4.86324 1.39012,-9.7119 1.70704,-14.607426 0.32227,-4.572753 0.5284,-9.15704 0.4414,-13.742188 -0.0135,-2.146616 -0.0261,-4.293199 -0.0703,-6.439453 z m 483.34375,0 c 0.0426,2.128011 0.0569,4.256168 0.0703,6.384766 0.0908,4.807983 -0.1319,9.614994 -0.46484,14.410156 -0.32154,5.057995 -1.12185,10.065735 -1.75391,15.089845 -0.76383,4.96599 -1.22601,9.97163 -1.76953,14.964844 -0.022,0.15777 -0.043,0.31484 -0.0645,0.47265 3.13413,-2.693584 6.47,-3.875394 9.53906,-3.757804 1.08933,0.0417 2.14556,0.24752 3.14648,0.60742 2.16027,-15.1854 10.98522,-22.77735 19.84375,-22.77735 10.23443,2e-5 20.51362,10.13316 20.60743,30.402344 0.0241,5.20741 -0.36024,10.39593 -0.85938,15.57422 1.85792,1.18022 3.65138,2.47187 5.37891,3.70117 3.55589,2.53036 7.28593,12.3574 8.96679,16.20899 0.98801,2.88258 2.08732,5.72778 2.9629,8.64648 2.07693,6.92329 4.18692,16.0358 5.74218,23.06446 1.37566,6.21697 2.65024,12.45215 3.86524,18.69922 4.53243,1.86268 10.56127,4.55331 18.81445,8.00195 2.60646,1.08912 1.35489,5.49242 1.80469,8.28125 0.72466,4.49297 0.83758,9.693 0.83398,14.74023 5.20344,2.03555 9.80216,8.12485 10.9336,18.67774 0.0291,0.27189 0.0578,0.54442 0.0859,0.8164 v -54.5 c -2.66172,-7.05468 -5.59152,-14.00672 -8.85547,-20.80859 -3.3564,-6.99453 -5.15878,-10.01675 -8.91992,-16.81055 -8.8678,-15.03014 -19.04237,-29.22469 -28.73242,-43.72461 -7.50902,-11.658014 -15.4135,-23.048144 -23.32226,-34.435543 -4.3448,-6.052633 -8.73696,-12.068233 -13.58399,-17.730469 -1.27735,-1.439703 -2.60066,-2.833036 -3.95117,-4.199219 z m 32.20703,0 c 4.53939,5.443562 8.72704,11.159519 12.85352,16.923828 7.93868,11.430479 15.87203,22.862799 23.41015,34.564453 9.82576,14.70375 20.14707,29.09722 29.11524,44.35352 3.93624,7.11983 5.71886,10.0991 9.23633,17.43945 0.28977,0.6047 0.57663,1.21139 0.86132,1.81836 V 49.805509 Z M 538.50832,171.68051 c -1.89529,8.82638 -7.26775,13.466 -12.82422,13.87891 0.67634,3.96128 1.53346,7.88998 2.47266,11.80078 2.00856,7.44613 3.94548,14.91249 5.80078,22.39843 2.18982,8.6274 4.33323,17.26649 6.25,25.95899 2.02551,8.86431 3.48015,17.82931 4.76953,26.82422 1.19122,8.30114 1.65127,16.6798 2.00391,25.05078 0.49554,8.9666 0.82012,17.9408 1.03906,26.91797 0.2404,11.59657 0.27731,23.19437 0.32031,34.79297 0.045,14.95243 0.0535,29.90493 0.0625,44.85742 0.0449,12.39191 -0.63958,24.76228 -1.33007,37.13086 5.0347,2.69813 8.98159,9.41101 8.80078,20.13672 -0.0655,3.8846 0.069,7.76538 0.20508,11.64648 2.19351,0.0635 4.38783,0.1128 6.58203,0.13477 0.11159,-10.79555 0.64747,-21.58164 1.72461,-32.33985 1.92155,-20.18899 4.79139,-40.24234 7.58984,-60.32422 2.90879,-24.26458 5.62167,-48.56749 7.60547,-72.92578 1.15533,-17.16172 2.33997,-34.32947 3.22265,-51.50976 -9.43147,-4.03234 -11.93003,-13.41112 -13.7539,-23.5293 -0.41692,-2.31292 -0.79097,-4.63406 -1.16016,-6.95508 -3.92648,-2.37236 -7.63461,-6.86435 -10.18554,-13.82226 -1.82438,-4.97625 -0.93423,-2.54546 -2.66797,-7.28907 -1.48926,-4.26571 -3.16993,-8.52996 -4.24805,-12.92578 -1.42034,-1.98897 -2.78538,-4.02057 -4.08203,-6.10547 -2.8441,-4.53415 -5.59953,-9.12581 -8.19727,-13.80273 z m 18.11914,330.37695 c 0.10214,2.78677 0.2813,5.58161 0.006,8.34375 -0.11949,1.19402 -0.34949,2.37519 -0.52343,3.5625 -4.11627,8.2888 -4.1278,11.54988 -14.70508,11.11719 -0.33385,0.94826 -0.70248,1.88708 -1.11133,2.8125 -2.17838,4.3574 -5.58423,7.73098 -9.23633,10.85547 -4.40573,3.7083 -9.54628,6.2288 -14.8125,8.45117 -8.28701,3.39891 -17.24866,3.73144 -26.07031,4.13086 -14.80096,0.58462 -29.61381,0.26512 -44.41602,-0.0606 -18.48197,-0.25781 -36.93955,-1.26416 -55.40429,-2.02734 -19.54928,-0.73611 -39.08283,-1.75764 -58.61719,-2.80469 -18.49563,-0.88444 -36.98436,-1.89019 -55.45313,-3.22461 -17.83399,-1.13785 -35.64918,-2.48809 -53.45507,-3.99609 -14.40027,-1.11676 -28.73143,-2.93649 -43.0254,-4.98047 -9.79428,-1.37467 -19.62207,-2.50529 -29.45312,-3.58203 -5.95833,-0.66103 -11.94066,-1.02104 -17.92969,-1.23438 -5.19827,-0.16053 -10.3993,-0.21551 -15.59961,-0.25781 -3.46935,-0.0267 -6.93889,-0.0356 -10.4082,-0.041 -0.0288,0.0606 -0.057,0.12234 -0.0859,0.18359 -1.05222,1.20911 -2.05825,2.45925 -3.15625,3.62695 -1.37087,1.45788 -2.91273,2.75001 -4.441404,4.05664 2.303734,2.29179 3.997814,4.59547 5.154294,6.83008 0.68673,0.009 1.37381,0.0189 2.06055,0.0293 9.72527,0.14424 19.45019,0.35519 29.16602,0.82812 8.55833,0.37683 17.12301,0.71127 25.6914,0.66797 9.48696,0 18.97399,0.002 28.46094,0.004 9.55018,0.003 19.10022,0.006 28.65039,0.0215 9.30061,0.0179 18.60206,0.0423 27.90234,0.12891 10.48356,0.10495 20.96731,0.24617 31.44532,0.62109 10.43855,0.39232 20.864,1.00733 31.30078,1.42774 7.83559,0.19538 15.66383,0.5543 23.49804,0.77539 6.95933,0.19717 13.9141,0.52484 20.8711,0.78711 9.57006,0.1937 19.14003,0.46617 28.69726,1.01562 11.31872,0.66896 22.62478,1.51408 33.93946,2.2461 9.26918,0.67202 18.54093,1.43079 27.83789,1.5664 8.28232,0.19238 16.56318,0.21212 24.84765,0.16992 8.07698,-0.008 16.15552,-0.0163 24.23243,-0.0547 7.12069,-0.0409 14.24073,-0.0962 21.35937,-0.28516 3.54474,-0.10424 7.08904,-0.23215 10.63086,-0.40625 3.18921,-0.82119 6.56091,-1.83786 11.96875,-3.63867 8.33441,-2.77536 9.27238,-3.1737 16.25,-7.375 1.47483,-0.88801 3.05819,-1.66437 4.30859,-2.84766 1.48244,-1.40289 2.52324,-3.20835 3.78516,-4.8125 1.25338,-2.25691 2.66165,-4.43601 3.76172,-6.77148 0.158,-0.33545 0.31319,-0.6706 0.4668,-1.00782 -0.39588,-8.25661 -1.05291,-16.49681 -1.58204,-24.74414 -2.26932,-0.0139 -4.53764,-0.0514 -6.80664,-0.10742 z m -28.87695,6.15039 c -0.0118,0.0273 -0.0233,0.0546 -0.0352,0.082 -0.005,0.28414 -0.10417,1.01139 -0.0684,1.10157 v 0.002 0.002 h 0.002 v 0.002 l 0.002,0.002 0.002,0.002 h 0.002 0.002 0.002 l 0.002,-0.002 0.002,-0.002 c 0.008,-0.008 0.0204,-0.0284 0.0332,-0.0586 0.14774,-0.34741 0.0499,-0.75327 0.0547,-1.13086 z m -137.3457,102.19922 c -21.48844,1.10834 -42.99093,1.89855 -64.49414,2.67578 h 86.7207 c -0.68705,-0.0872 -1.37331,-0.17381 -2.06055,-0.25976 -6.72954,-0.74433 -13.44715,-1.58191 -20.16601,-2.41602 z m 245.41015,0.70508 c -0.288,0.0595 -0.57704,0.11908 -0.86523,0.17773 -1.23017,0.39467 -2.54221,0.73974 -3.93945,1.0293 -1.2662,0.2624 -2.53497,0.5175 -3.80469,0.76367 h 8.60937 z m -579.138668,0.65234 c 1.704548,0.4547 3.451986,0.89899 5.173828,1.31836 h 75.67383 c -17.67564,-0.50248 -35.35786,-0.76745 -53.039065,-0.97656 -9.272465,-0.0218 -18.540482,-0.14347 -27.808593,-0.3418 z" />
    </clipPath>
  </defs>
  <g
     inkscape:label="Layer 1"
     inkscape:groupmode="layer"
     id="layer1">
    <rect
       style="fill:#1a1a1a"
       id="rect2"
       width="512.43872"
       height="513.31622"
       x="0"
       y="0"
       clip-path="url(#clipPath61)" />
    <path
       style="fill:none;stroke:#ffffff;stroke-width:36.751;stroke-dasharray:none;stroke-opacity:1"
       d="M 66.729216,485.21437 C 420.24884,-68.748292 460.26647,67.329902 517.84156,117.41422 572.7118,165.14561 626.47933,270.05816 626.47933,270.05816 L 596.11634,603.59358 63.802788,577.22841 Z"
       id="path2"
       clip-path="url(#clipPath35)"
       transform="translate(-0.87746358,25.446444)"
       sodipodi:nodetypes="cscccc" />
    <rect
       style="fill:#1a1a1a"
       id="rect2-8"
       width="512.43872"
       height="32.466179"
       x="-0.089974158"
       y="483.44299" />
    <path
       style="fill:none;stroke:#ffffff;stroke-width:28.134;stroke-dasharray:none;stroke-dashoffset:142.26;stroke-opacity:1"
       d="M 347.93441,130.12137 C 319.64922,76.366578 326.15863,35.121909 337.37506,29.734646 c 6.45443,-3.100069 89.72231,58.017864 89.72231,58.017864 l -38.94039,13.51246 z"
       id="path123"
       sodipodi:nodetypes="csccc" />
    <path
       style="fill:#b5a8a8;fill-opacity:1;stroke:#e6ad00;stroke-width:29.5433;stroke-dasharray:59.0866, 29.5433;stroke-dashoffset:0;stroke-opacity:1"
       d="m -95.774514,444.03677 c 795.430294,0 795.430294,0 795.430294,0 v 0 z"
       id="path37" />
  </g>
</svg>
