<?xml version="1.0" encoding="UTF-8" standalone="no"?>
<!-- Created with Inkscape (http://www.inkscape.org/) -->

<svg
   width="512"
   height="512"
   viewBox="0 0 512 512"
   version="1.1"
   id="svg1"
   inkscape:export-filename="Documents\furlong\furlong_mobile\furlong\assets\icons\logo.png"
   inkscape:export-xdpi="96"
   inkscape:export-ydpi="96"
   inkscape:version="1.4.2 (f4327f4, 2025-05-13)"
   sodipodi:docname="logo.svg"
   xmlns:inkscape="http://www.inkscape.org/namespaces/inkscape"
   xmlns:sodipodi="http://sodipodi.sourceforge.net/DTD/sodipodi-0.dtd"
   xmlns="http://www.w3.org/2000/svg"
   xmlns:svg="http://www.w3.org/2000/svg">
  <sodipodi:namedview
     id="namedview1"
     pagecolor="#ffffff"
     bordercolor="#000000"
     borderopacity="0.25"
     inkscape:showpageshadow="2"
     inkscape:pageopacity="0.0"
     inkscape:pagecheckerboard="0"
     inkscape:deskcolor="#d1d1d1"
     inkscape:document-units="px"
     inkscape:zoom="0.40292657"
     inkscape:cx="248.18418"
     inkscape:cy="363.58982"
     inkscape:window-width="2560"
     inkscape:window-height="1369"
     inkscape:window-x="-8"
     inkscape:window-y="1072"
     inkscape:window-maximized="1"
     inkscape:current-layer="layer1">
    <inkscape:page
       x="0"
       y="0"
       width="512"
       height="512"
       id="page2"
       margin="0"
       bleed="0" />
  </sodipodi:namedview>
  <defs
     id="defs1">
    <clipPath
       clipPathUnits="userSpaceOnUse"
       id="clipPath61">
      <path
         id="path61"
         style="fill:#ff0000;fill-opacity:1;fill-rule:nonzero;stroke:none"
         d="m 0,0 v 513.31641 h 512.43945 v -13.5625 c -0.0818,-0.73629 -0.0767,-1.57757 0,-2.54688 V 0 Z" />
    </clipPath>
    <clipPath
       clipPathUnits="userSpaceOnUse"
       id="clipPath8">
      <path
         id="path9"
         style="fill:#ff0000;fill-opacity:1;fill-rule:nonzero;stroke:none"
         d="M 44.78762,49.805509 V 510.92074 c 1.816007,0.12329 3.62764,0.29006 5.419922,0.57422 -0.278716,-5.26581 0.458932,-10.59111 1.449218,-16.02539 0.607631,-2.82948 2.208929,-10.15552 5.03125,-13.16406 0.88451,-5.46148 1.914129,-10.89922 3.246094,-16.26953 -15.80465,-4.10716 -13.606485,-23.9876 9.582031,-28.625 0.407488,-0.0815 0.817211,-0.15773 1.226563,-0.22852 0.411261,-0.6355 0.839284,-1.26113 1.285156,-1.8789 0.970749,-1.17271 1.859292,-2.41991 2.91211,-3.51954 4.320241,-4.51234 9.960206,-7.05779 16.166015,-7.4082 3.152534,-0.10747 6.306118,-0.0571 9.457031,0.10156 3.42326,0.19953 6.84598,0.50891 10.20703,1.2168 5.35083,1.27157 10.39084,3.23801 14.3418,7.22656 1.03685,1.4537 2.6056,2.64886 3.11133,4.36133 0.99478,3.36839 1.56873,6.95988 1.26562,10.45899 -0.46276,5.34224 -6.17181,9.89849 -10.52344,12.28711 -4.43337,1.98697 -9.06416,3.37832 -13.89648,4.01562 -3.99917,0.49222 -7.995176,0.75343 -12.027344,0.67383 -0.913245,0.0156 -1.826846,0.0312 -2.740234,0.0488 -0.679111,2.29694 -1.303224,4.61109 -1.929688,6.92968 -2.162304,8.3582 -3.43226,16.91279 -4.611328,25.45508 -0.405369,2.69277 -0.61264,5.40381 -0.724609,8.1211 3.216195,2.47256 5.005583,5.93604 4.007812,9.8125 1.316687,1.53786 2.293572,3.2308 2.980469,5.05078 0.711021,0.0411 1.421897,0.0833 2.132812,0.13086 4.104299,0.19089 8.21888,0.008 12.32617,0.0781 4.13641,0.006 8.27385,0.0131 12.41016,0.0449 5.28094,0.043 10.56099,0.0978 15.83984,0.26172 6.20352,0.22229 12.40055,0.59634 18.57227,1.28125 9.92679,1.08763 19.85061,2.22832 29.74023,3.61719 14.12718,2.02084 28.29096,3.82115 42.52344,4.92383 17.76989,1.50497 35.54773,2.85285 53.3457,3.98828 18.4145,1.331 36.84974,2.33251 55.29102,3.21484 19.49862,1.04516 38.9982,2.06433 58.51172,2.79883 18.4084,0.76098 36.8088,1.76439 55.23437,2.02149 14.60637,0.32195 29.22286,0.6412 43.82813,0.0684 7.78325,-0.34758 15.72673,-0.51788 23.06445,-3.45312 4.43919,-1.85873 8.79185,-3.93069 12.51758,-7.03711 2.6765,-2.27777 5.25199,-4.65242 6.93555,-7.79687 0.0878,-0.18749 0.1734,-0.37514 0.25585,-0.56446 -1.94842,-1.31445 -3.30387,-3.94551 -4.83398,-5.81445 -1.9279,-2.35481 -3.48391,-8.75239 -4.33008,-11.88672 -10.70985,-1.96655 -12.07317,-3.03576 -10.42773,-12.67187 1.33287,-5.87833 3.03841,-11.65587 4.56836,-17.48438 0.61637,-1.8446 2.39753,-7.9563 4.11328,-8.45117 1.7235,-0.49711 3.4893,-0.95888 5.27734,-1.34375 -0.022,-1.54381 -0.0272,-3.08628 -0.004,-4.63086 v -0.002 c 0.18604,-12.06747 5.43537,-19.05313 11.41406,-20.95899 0.6764,-12.09212 1.34031,-24.18762 1.29883,-36.30273 -0.009,-14.94333 -0.0176,-29.88681 -0.0625,-44.83008 -0.0427,-11.53817 -0.0798,-23.07712 -0.31836,-34.61328 -0.21736,-8.92555 -0.54068,-17.8467 -1.03321,-26.76172 -0.3391,-8.07779 -0.77861,-16.16308 -1.92578,-24.17383 -1.25833,-8.7791 -2.67045,-17.53045 -4.65039,-26.18164 -1.89833,-8.61871 -4.02799,-17.18416 -6.19726,-25.73828 -1.86003,-7.50718 -3.80652,-14.99267 -5.81641,-22.46094 -1.39588,-5.8225 -2.6158,-11.68594 -3.37891,-17.625 -3.44149,-3.46592 -5.89143,-9.30216 -5.97656,-17.52539 -0.10563,-10.2031 0.1994,-20.4193 1.29297,-30.57031 0.24839,-1.92278 0.50649,-3.8482 0.80664,-5.76758 -0.0375,-0.32095 -0.0476,-0.6466 -0.0625,-0.96875 -0.0335,-0.84389 -0.0399,-1.68878 -0.0469,-2.5332 -0.011,-0.92013 -0.005,-1.83994 0.0195,-2.75977 0.0217,-0.86527 0.066,-1.72928 0.10742,-2.59375 0.0414,-0.87261 0.0592,-1.74572 0.0723,-2.61914 0.0118,-0.90008 0.0146,-1.80102 0.0176,-2.70117 0.002,-0.76242 0.003,-1.52468 0.004,-2.28711 0.002,-0.6041 -0.0125,-1.20849 -0.0215,-1.8125 -0.002,-0.30964 -0.008,-0.6185 -0.0137,-0.92773 -0.0111,-0.11906 -0.0237,-0.23783 -0.0332,-0.35743 -0.003,-0.0435 -0.006,-0.0871 -0.008,-0.13086 -0.0448,-0.37739 -0.0915,-0.75482 -0.12891,-1.13281 -0.0351,-0.30086 -0.0678,-0.60112 -0.0996,-0.90234 -0.025,-0.23692 -2.9e-4,-0.43293 0.0566,-0.58594 -0.002,-0.0177 -0.004,-0.035 -0.006,-0.0527 -0.0483,-0.40027 0.0437,-0.696 0.19727,-0.87305 0.002,-0.10077 0.005,-0.202 0.008,-0.30274 0.01,-0.26442 0.0234,-0.52677 0.0371,-0.79101 0.0307,-0.59303 0.32668,-0.89441 0.62695,-0.91602 0.34032,-0.0245 0.68519,0.30836 0.65039,0.98047 -0.0132,0.25435 -0.0271,0.50916 -0.0371,0.76367 -0.0183,0.64401 -0.0285,1.28931 -0.0195,1.9336 0.004,0.56438 0.008,1.12714 0.0215,1.6914 0.003,0.14289 0.007,0.28662 0.01,0.42969 0.0481,0.4524 0.085,0.90525 0.11133,1.35938 0.0235,0.38438 0.0505,0.76799 0.0742,1.15234 0.0241,0.3199 0.0457,0.64108 0.0703,0.96094 0.0181,0.29221 0.0543,0.58148 0.0801,0.87304 8.3e-4,0.009 6.5e-4,0.0181 0.002,0.0274 0.36154,-4.39141 0.82323,-8.7736 1.43164,-13.138674 0.54894,-5.04196 1.01673,-10.09475 1.78711,-15.10937 0.61261,-4.86324 1.39012,-9.7119 1.70704,-14.607426 0.32227,-4.572753 0.5284,-9.15704 0.4414,-13.742188 -0.0135,-2.146616 -0.0261,-4.293199 -0.0703,-6.439453 z m 483.34375,0 c 0.0426,2.128011 0.0569,4.256168 0.0703,6.384766 0.0908,4.807983 -0.1319,9.614994 -0.46484,14.410156 -0.32154,5.057995 -1.12185,10.065735 -1.75391,15.089845 -0.76383,4.96599 -1.22601,9.97163 -1.76953,14.964844 -0.022,0.15777 -0.043,0.31484 -0.0645,0.47265 3.13413,-2.693584 6.47,-3.875394 9.53906,-3.757804 6.66827,0.25548 12.07405,6.648794 11.39453,17.015624 1.2589,2.04764 2.3816,4.46906 3.3086,7.28711 1.61732,4.9163 3.43151,9.76084 5.36523,14.55859 2.27035,-0.27364 4.53986,-0.60593 6.81055,-0.93164 2.16678,-0.8335 4.66753,-1.71838 7.54882,-2.68164 1.34599,-0.44998 2.48901,0.20884 3.51758,1.33203 2.41868,-0.4937 4.82813,-1.00943 7.20703,-1.61914 0.0882,0.5968 0.17787,1.1923 0.26758,1.78906 0.0287,0.003 0.0573,0.005 0.0859,0.008 1.74005,0.15677 0.6038,3.4423 0.88867,5.16602 0.87511,5.29527 1.70677,10.59367 2.60742,15.88086 3.05947,-0.39428 6.13832,-0.61148 9.18946,-0.69141 1.54732,-0.0405 4.40301,12.59678 4.66211,13.90235 2.02389,8.46981 4.30449,16.86672 6.85546,25.19336 1.20072,3.91926 1.65857,7.42015 1.53711,10.46289 1.78782,2.00485 3.25456,4.70096 4.17969,8.07031 1.13985,1.17194 2.26875,2.35451 3.38281,3.55273 1.97619,2.05761 3.85553,4.19791 5.65821,6.40039 0.79437,-0.19602 1.6023,-0.30234 2.41406,-0.3164 6.73941,-0.11672 13.72773,6.08894 15.16016,19.44922 0.0291,0.27189 0.0578,0.54442 0.0859,0.8164 v -54.5 c -2.66172,-7.05468 -5.59152,-14.00672 -8.85547,-20.80859 -3.3564,-6.99453 -5.15878,-10.01675 -8.91992,-16.81055 -8.8678,-15.03014 -19.04237,-29.22469 -28.73242,-43.72461 -7.50902,-11.658014 -15.4135,-23.048144 -23.32226,-34.435543 -4.3448,-6.052633 -8.73696,-12.068233 -13.58399,-17.730469 -1.27735,-1.439703 -2.60066,-2.833036 -3.95117,-4.199219 z m 32.20703,0 c 4.53939,5.443562 8.72704,11.159519 12.85352,16.923828 7.93868,11.430479 15.87203,22.862799 23.41015,34.564453 9.82576,14.70375 20.14707,29.09722 29.11524,44.35352 3.93624,7.11983 5.71886,10.0991 9.23633,17.43945 0.28977,0.6047 0.57663,1.21139 0.86132,1.81836 V 49.805509 Z m 33.73438,115.785161 c -0.002,7.2e-4 -0.006,0.002 -0.008,0.004 -0.0502,0.0431 -0.12192,0.29659 -0.16406,0.9043 0.24385,-0.34245 0.25335,-0.82687 0.19336,-0.90039 l -0.002,-0.002 c -8.9e-4,-7.1e-4 -0.005,-0.003 -0.006,-0.004 l -0.002,-0.002 h -0.002 -0.002 -0.002 -0.002 -0.002 z m -55.56446,6.08984 c -1.89529,8.82638 -7.26775,13.466 -12.82422,13.87891 0.67634,3.96128 1.53346,7.88998 2.47266,11.80078 2.00856,7.44613 3.94548,14.91249 5.80078,22.39843 2.18982,8.6274 4.33323,17.26649 6.25,25.95899 2.02551,8.86431 3.48015,17.82931 4.76953,26.82422 1.19122,8.30114 1.65127,16.6798 2.00391,25.05078 0.49554,8.9666 0.82012,17.9408 1.03906,26.91797 0.2404,11.59657 0.27731,23.19437 0.32031,34.79297 0.045,14.95243 0.0535,29.90493 0.0625,44.85742 0.0449,12.39191 -0.63958,24.76228 -1.33007,37.13086 5.0347,2.69813 8.98159,9.41101 8.80078,20.13672 -0.0655,3.8846 0.069,7.76538 0.20508,11.64648 3.90081,0.11299 7.80382,0.18335 11.70507,0.12891 5.75801,-0.16989 11.50971,-0.49857 17.26368,-0.77735 1.00738,-11.2208 7.21713,-17.16773 13.61914,-17.42187 0.57696,-12.38503 1.21747,-24.77022 2.35156,-37.11914 0.38183,-3.70015 0.78719,-7.39871 1.22851,-11.09375 -6.28701,-2.41228 -10.79449,-10.70935 -7.92382,-23.65039 1.06087,-4.78244 2.21193,-9.54208 3.64648,-14.22852 2.12093,-7.14365 4.10182,-14.32845 6.21484,-21.47461 2.78363,-10.36472 5.31657,-20.86584 5.41407,-31.66601 0.0265,-1.12816 0.0472,-2.25664 0.0625,-3.38477 -5.98535,-0.84184 -12.19248,-6.41915 -14.94336,-17.63477 -1.56966,-6.39969 -0.75011,-3.08979 -2.4668,-9.93164 -3.00363,-12.17087 -6.09585,-24.32372 -8.4707,-36.63867 -1.29695,-7.41087 -2.48468,-14.92102 -2.60938,-22.45898 -6.829,4.70646 -17.902,1.25856 -23.46679,-13.91992 -1.82438,-4.97625 -0.93423,-2.54546 -2.66797,-7.28907 -1.48926,-4.26571 -3.16993,-8.52996 -4.24805,-12.92578 -1.42034,-1.98897 -2.78538,-4.02057 -4.08203,-6.10547 -2.8441,-4.53415 -5.59953,-9.12581 -8.19727,-13.80273 z m 97.30664,208.39453 c -2.85873,13.44503 -4.59606,27.10241 -5.99218,40.76953 -1.19238,13.13531 -1.8105,26.31206 -2.41407,39.48438 -0.20264,4.42251 -1.06416,8.12993 -2.37109,11.13281 0.51687,0.008 1.0339,0.0161 1.55078,0.0234 3.07539,0.0405 6.15096,0.0673 9.22656,0.0879 z M 106.3677,433.9559 c -0.318,0.0549 -0.64578,0.21532 -0.95899,0.42969 0.15326,-0.0481 0.30564,-0.0971 0.45703,-0.14844 0.4395,-0.14911 0.65819,-0.1976 0.69532,-0.22461 l 0.002,-0.002 h 0.002 v -0.002 h 0.002 v -0.002 -0.002 -0.002 l -0.002,-0.002 -0.002,-0.002 c -0.0203,-0.0113 -0.0891,-0.0222 -0.19531,-0.043 z m 508.79297,66.31445 c 0.41257,4.68714 0.89991,9.36877 1.40234,14.04688 0.42171,5.32773 1.04127,10.63465 1.5957,15.94922 0.4541,4.38951 0.61649,8.79989 0.72461,13.20898 0.0798,5.36821 -0.10089,10.74387 -0.39062,16.10547 0.75159,0.12976 1.50408,0.25244 2.25781,0.36914 -0.038,0.0523 -0.10273,0.0928 -0.11523,0.15625 v 0.002 0.002 0.002 0.002 l 0.002,0.002 v 0.002 0.002 0.002 0.002 l 0.002,0.002 c 0.0222,0.041 0.12941,0.0602 0.16797,0.0898 l 0.006,0.006 0.002,0.002 v 0.002 l 0.002,0.002 0.002,0.004 v 0.002 l 0.002,0.002 v 0.002 0.008 0.002 0.002 0.002 0.002 0.002 l -0.002,0.002 h -0.002 v 0.002 l -0.002,0.002 c -0.15869,0.24467 -0.56512,0.33843 -0.64062,0.66406 0.32478,-0.26129 0.59659,-0.58473 0.92773,-0.83789 l 0.002,-0.002 0.002,-0.002 h 0.002 0.002 v 0.002 0.002 c -0.003,0.0273 -0.0509,0.1273 -0.0547,0.14648 v 0.002 0.002 h 0.002 v -0.002 c 7.6e-4,-7.1e-4 0.003,-0.003 0.004,-0.004 0.7132,-0.82325 1.23622,-1.83321 2.08984,-2.50977 0.19381,-0.15361 0.38257,-0.3033 0.56641,-0.44726 -0.0136,-1.27696 -0.0146,-2.55266 0.006,-3.82813 -0.0432,-11.36836 0.10843,-22.76 1.49023,-34.06054 0.0725,-0.45978 0.1405,-0.89126 0.20313,-1.29688 -0.0157,-0.13101 -0.013,-0.23837 0.043,-0.2832 0.54643,-3.5326 0.80171,-4.94993 2.05274,-5.11524 0.0728,-1.94982 0.16056,-3.89926 0.26953,-5.84765 0.12523,-2.11825 0.29757,-4.24503 0.37109,-6.3711 -0.65768,-0.008 -1.31498,-0.0148 -1.97265,-0.0234 -3.67338,-0.0519 -7.34617,-0.12714 -11.01953,-0.17774 z m -28.96875,1.08985 c -6.02071,0.29261 -12.03867,0.64044 -18.06446,0.79687 -3.83354,0.0396 -7.66712,-0.005 -11.5,-0.0996 0.10214,2.78677 0.28158,5.58161 0.006,8.34375 -0.11949,1.19402 -0.34949,2.37519 -0.52343,3.5625 -4.11627,8.2888 -4.1278,11.54988 -14.70508,11.11719 -0.33385,0.94826 -0.70248,1.88708 -1.11133,2.8125 -2.17838,4.3574 -5.58423,7.73098 -9.23633,10.85547 -4.40573,3.7083 -9.54628,6.2288 -14.8125,8.45117 -8.28701,3.39891 -17.24866,3.73144 -26.07031,4.13086 -14.80096,0.58462 -29.61381,0.26502 -44.41602,-0.0606 -18.48197,-0.25781 -36.93955,-1.26416 -55.40429,-2.02734 -19.54928,-0.73611 -39.08283,-1.75764 -58.61719,-2.80469 -18.49563,-0.88444 -36.98436,-1.89019 -55.45313,-3.22461 -17.83399,-1.13785 -35.64918,-2.48809 -53.45507,-3.99609 -14.40027,-1.11676 -28.73143,-2.93649 -43.0254,-4.98047 -9.79428,-1.37467 -19.62207,-2.50529 -29.45312,-3.58203 -5.95833,-0.66103 -11.94066,-1.02104 -17.92969,-1.23438 -5.19827,-0.16053 -10.3993,-0.21551 -15.59961,-0.25781 -4.11665,-0.0317 -8.23286,-0.037 -12.34961,-0.043 -4.23229,-0.0498 -8.469625,0.0884 -12.699215,-0.0879 -0.171928,-0.0107 -0.3437,-0.0211 -0.515625,-0.0312 -0.06303,0.50016 -0.148001,0.99902 -0.201172,1.5 -0.01417,0.0824 -0.02802,0.16449 -0.04297,0.2461 1.631774,1.15201 3.23435,2.34339 4.783203,3.60742 3.853293,3.14467 6.486529,6.37062 8.087889,9.46484 0.68673,0.009 1.37381,0.0189 2.06055,0.0293 9.72527,0.14424 19.45019,0.35519 29.16602,0.82812 8.55833,0.37683 17.12301,0.71127 25.6914,0.66797 9.48696,0 18.97399,0.002 28.46094,0.004 9.55018,0.003 19.10022,0.006 28.65039,0.0215 9.30061,0.0179 18.60206,0.0423 27.90234,0.12891 10.48356,0.10495 20.96731,0.24617 31.44532,0.62109 10.43855,0.39232 20.864,1.00733 31.30078,1.42774 7.83559,0.19538 15.66383,0.5543 23.49804,0.77539 6.95933,0.19717 13.9141,0.52484 20.8711,0.78711 9.57006,0.1937 19.14003,0.46617 28.69726,1.01562 11.31872,0.66896 22.62478,1.51408 33.93946,2.2461 9.26918,0.67202 18.54093,1.43079 27.83789,1.5664 8.28232,0.19238 16.56318,0.21212 24.84765,0.16992 8.07698,-0.008 16.15552,-0.0163 24.23243,-0.0547 7.12069,-0.0409 14.24073,-0.0962 21.35937,-0.28516 6.70654,-0.19722 13.41084,-0.48208 20.10156,-0.99609 7.23573,-0.49099 14.48345,-0.76388 21.73633,-0.79688 7.78166,-0.0955 15.57158,-0.1164 23.32617,0.65625 3.60022,0.36704 7.1891,0.82373 10.76563,1.36719 0.13121,-3.27307 0.19379,-6.54946 0.16015,-9.82227 -0.087,-3.64155 -0.20625,-7.28415 -0.57617,-10.91015 -0.54922,-5.28375 -1.16956,-10.56057 -1.58594,-15.85743 -0.57405,-5.34498 -1.1255,-10.6924 -1.58007,-16.04882 z m -58.44141,6.84765 c -0.0118,0.0273 -0.0233,0.0546 -0.0352,0.082 -0.005,0.28414 -0.10425,1.01139 -0.0684,1.10157 v 0.002 0.002 h 0.002 v 0.002 l 0.002,0.002 0.002,0.002 h 0.002 0.002 0.002 l 0.002,-0.002 0.002,-0.002 c 0.008,-0.008 0.0204,-0.0284 0.0332,-0.0586 0.14774,-0.34741 0.0499,-0.75327 0.0547,-1.13086 z m 92.66406,61.6543 -0.002,0.002 c -0.0159,0.0327 -0.0367,0.31053 0.008,0.4043 0.0173,0.0372 0.0354,0.0742 0.0527,0.11133 -0.0163,-0.16451 -0.0331,-0.32979 -0.0508,-0.49414 -8.7e-4,-0.008 -0.003,-0.0135 -0.004,-0.0176 v -0.002 -0.002 h -0.002 v -0.002 z M 70.842307,588.38754 c -8.679005,0.64289 -17.360569,1.26859 -26.054687,1.64648 v 17.87305 c 1.53029,0.61421 3.060266,1.22934 4.626953,1.74024 3.55616,1.15969 8.080688,2.37488 12.435547,3.43554 h 350.78125 c -0.68705,-0.0872 -1.37331,-0.17381 -2.06055,-0.25976 -9.44548,-1.04473 -18.86929,-2.27374 -28.30273,-3.41797 -10.02628,-1.39284 -20.11849,-2.18771 -30.20117,-3.0332 -10.11412,-0.88883 -20.25503,-1.37307 -30.40039,-1.71094 -9.30438,-0.28576 -18.61388,-0.36434 -27.92188,-0.43164 -9.03135,0.0705 -18.05254,-0.27489 -27.07226,-0.6836 -11.3729,-0.44773 -22.7432,-0.97142 -34.11329,-1.48437 -13.72402,-0.79474 -27.45738,-1.33267 -41.19921,-1.68555 -13.87981,-0.31899 -27.72365,-1.45255 -41.56836,-2.42187 -10.98741,-0.66848 -21.94249,-1.75076 -32.90821,-2.69336 -6.98696,-0.54974 -13.96611,-1.21512 -20.935544,-1.95508 -5.504294,-0.62154 -10.940301,-1.70391 -16.386719,-2.69141 -2.990277,-0.43866 -5.933649,-1.1103 -8.71875,-2.22656 z m 564.972653,22.72461 c -0.288,0.0595 -0.57704,0.11908 -0.86523,0.17773 -1.23017,0.39467 -2.54221,0.73974 -3.93945,1.0293 -1.2662,0.2624 -2.53497,0.5175 -3.80469,0.76367 h 8.60937 z" />
    </clipPath>
    <clipPath
       clipPathUnits="userSpaceOnUse"
       id="clipPath27">
      <path
         id="path28"
         style="fill:#ff0000;fill-opacity:1;fill-rule:nonzero;stroke:none;stroke-width:1"
         d="m -44.841834,475.82453 c -0.504442,1.28166 -0.750239,2.60959 -0.622258,3.88281 0.132465,1.3178 0.49071,2.58759 0.940513,3.83789 0.02846,0.0483 0.05675,0.097 0.0855,0.14453 0.04678,-0.60992 0.07588,-1.22177 0.08391,-1.83398 0.0089,-0.67615 -0.188458,-3.65234 -0.21692,-4.11719 -0.0437,-0.63807 -0.08631,-1.27612 -0.131419,-1.91406 z m 81.160908,0.008 c 0.126497,0.21749 0.25306,0.43504 0.37842,0.65234 0.738138,1.18739 1.48231,2.36687 2.234106,3.54102 0.110802,-0.4797 0.218661,-0.96072 0.31667,-1.44336 1.080114,-0.79693 2.114202,-1.75992 3.139782,-2.75 z m 46.268636,0 c 1.103972,0.56027 2.193739,1.16591 3.272784,1.79688 3.072265,1.65569 5.875475,4.262 7.752078,7.73046 0.499193,0.92264 0.888876,1.92817 1.333181,2.89258 1.646342,4.28508 1.871833,9.01834 2.075771,13.67188 0.225628,4.73333 -0.523513,9.28882 -1.803435,13.72265 -1.394453,4.49155 -3.440797,8.65294 -6.262147,12.00586 -0.69458,0.82545 -1.466504,1.54674 -2.199273,2.32032 -5.140487,4.75261 -11.390454,6.98652 -17.684429,8.07226 -1.596215,0.27536 -3.206904,0.40624 -4.810216,0.60938 -10.38193,0.66362 -20.814204,-1.00209 -30.856313,-4.25977 -2.352889,-0.76329 -4.6639,-1.7162 -6.995238,-2.57422 -7.538595,-3.17581 -14.236341,-7.34068 -19.8932062,-13.74023 -1.8657845,0.32231 -3.7328417,0.63536 -5.60346594,0.91601 -2.16971466,0.26826 -4.34258276,0.44489 -6.51548336,0.65235 -0.082219,0.0993 -0.1710119,0.19381 -0.2660068,0.2832 -2.547327,2.39721 -5.1762727,4.90562 -8.3727477,6.32617 -3.588274,1.59468 -7.782811,1.09202 -11.474536,-0.24219 -0.731366,2.6087 -1.457877,5.21848 -2.207192,7.82227 -0.859056,2.98516 -1.95294,5.55776 -3.211026,7.73633 7.251252,-0.17046 14.503938,-0.15991 21.7457134,0.36719 9.56060533,0.58194 19.1002709,1.42375 28.6475446,2.18359 8.634966,0.6126 17.3007,1.0852 25.959014,0.75586 9.463457,-0.28914 18.921283,-0.72777 28.383121,-1.06055 10.781042,-0.18896 21.559969,-0.13618 32.341498,0.0274 9.72527,0.14424 19.44948,0.35519 29.16529,0.82812 8.55833,0.37683 17.12304,0.71127 25.69143,0.66797 9.48696,0 18.97376,0.002 28.46071,0.004 9.55018,0.003 19.10054,0.006 28.65071,0.0215 9.30061,0.0179 18.60308,0.0423 27.90336,0.12891 10.48356,0.10495 20.96731,0.24617 31.44532,0.62109 10.43855,0.39232 20.86287,1.00731 31.29965,1.42773 7.83559,0.19538 15.66428,0.5543 23.49849,0.77539 6.95933,0.19717 13.91471,0.52483 20.87171,0.78711 9.57006,0.1937 19.1394,0.46618 28.69663,1.01563 11.31872,0.66896 22.62441,1.51407 33.93909,2.24609 9.26918,0.67202 18.54149,1.4308 27.83845,1.56641 8.28232,0.19238 16.56303,0.21212 24.8475,0.16992 8.07698,-0.008 16.15467,-0.0163 24.23158,-0.0547 7.12069,-0.0409 14.24075,-0.0962 21.35939,-0.28515 6.70654,-0.19722 13.41148,-0.48209 20.1022,-0.9961 4.29482,-0.29143 8.59454,-0.50547 12.89638,-0.63867 -7.57209,-8.42814 -1.45296,-22.26104 18.35577,-22.58398 5.82292,-0.0949 11.62333,10e-4 17.42635,0.50195 8.77454,1.13998 16.68934,5.10974 24.07166,9.78125 4.39852,2.71974 7.73221,6.72656 11.73578,9.92578 1.20091,0.80278 2.55031,1.1557 3.90613,1.63281 0.45367,0.19408 0.91595,0.36134 1.38226,0.50977 -0.0222,-10.85227 0.17425,-21.72012 1.4931,-32.50586 0.0725,-0.45978 0.14004,-0.89125 0.20267,-1.29687 -0.0157,-0.13101 -0.0117,-0.23838 0.0443,-0.28321 0.0696,-0.45008 0.13511,-0.86485 0.19792,-1.24804 -1.0017,0.0194 -2.00608,-0.006 -3.00678,0.0391 -0.0371,0.004 -0.0762,0.006 -0.11717,0.004 -6.11592,0.27024 -12.24847,0.21563 -18.35893,0.50782 -6.66789,0.0336 -13.50444,0.39823 -20.07529,-1.29883 -2.31219,-0.59717 -3.48277,-1.36724 -5.61299,-2.49805 -11.38911,-6.0459 -7.85748,-4.73355 -1.85409,-6.53906 -1.15197,-1.47021 -1.96124,-3.11117 -2.43044,-4.82031 -2.02432,0.0866 -4.04974,0.1603 -6.07531,0.21289 -3.83354,0.0396 -7.667,-0.005 -11.49987,-0.0996 0.10214,2.78677 0.28224,5.58161 0.006,8.34375 -0.11948,1.19402 -0.35015,2.37519 -0.52408,3.5625 -4.85553,9.77745 -3.99965,12.56034 -21.51139,10.53515 -3.15641,-0.36503 -4.86524,-4.14104 -6.87808,-6.59961 -1.92789,-2.35481 -3.48428,-8.75237 -4.33046,-11.88671 -3.07023,-0.56376 -5.37207,-1.05412 -7.05539,-1.69336 -0.89213,1.83036 -3.29017,1.28889 -3.2918,-1.62696 0,-0.28847 3.9e-4,-0.5764 0,-0.86523 -0.88435,-1.62398 -0.80965,-3.99133 -0.20425,-7.74414 -8.1e-4,-0.0208 -0.002,-0.0417 -0.003,-0.0625 -0.0523,-0.73772 -0.13415,-1.47308 -0.22483,-2.20703 -0.075,-0.61088 -0.13795,-1.22225 -0.18525,-1.83594 -0.0288,-0.54722 -0.051,-1.09443 -0.038,-1.64258 0.002,-0.53667 0.005,-1.07472 0.0127,-1.61133 0.011,-0.68357 0.0234,-1.36621 0.0633,-2.04882 0.0471,-0.71541 0.11397,-1.42928 0.20425,-2.14063 0.0581,-0.58497 0.11786,-1.1706 0.14725,-1.75781 0.0174,-0.41123 0.002,-0.82287 0.006,-1.23438 0,-0.38901 3.3e-4,-0.77896 -0.003,-1.16797 -0.004,-0.3917 -0.0113,-0.78241 -0.0285,-1.17382 -0.02,-0.46014 -0.0416,-0.92032 -0.0855,-1.37891 z M -54.593685,496.813 c 0.420262,6.65096 0.85206,13.3002 1.406018,19.94141 0.666934,-2.37046 1.341213,-4.73818 2.04252,-7.09961 1.273335,-3.89043 2.536691,-7.78083 3.679702,-11.70704 -2.650161,-0.17509 -5.023493,-0.56715 -7.12824,-1.13476 z m 681.377005,3.65234 c 0.14731,4.10983 0.17395,8.23906 0.31667,12.34961 0.12409,-0.0578 0.26088,-0.0953 0.41167,-0.11523 0.0728,-1.94982 0.1602,-3.89927 0.26917,-5.84766 0.12522,-2.11825 0.29857,-4.24502 0.37209,-6.37109 -0.45668,-0.006 -0.91297,-0.0102 -1.3696,-0.0156 z m -553.70679,2.55469 c 0.144835,0.22308 0.278544,0.44989 0.389504,0.68555 -0.108747,-0.32492 -0.241392,-0.60924 -0.389504,-0.68555 z m 3.032115,0.94141 c 0.390429,0.28739 0.757224,0.46049 0.813841,0.4707 8.92e-4,8e-5 0.0041,6e-5 0.0048,0 h 0.0016 v -0.002 -0.002 c -0.0049,-0.005 -0.01859,-0.0155 -0.038,-0.0273 -0.256494,-0.15685 -0.519986,-0.29742 -0.782174,-0.43945 z m 451.640925,4.24609 c -0.0118,0.0273 -0.0229,0.0546 -0.0349,0.082 -0.005,0.28414 -0.10365,1.01138 -0.0681,1.10156 v 0.002 0.002 h 0.002 v 0.002 l 0.002,0.002 0.003,0.002 h 0.003 0.003 0.002 l 0.003,-0.002 0.003,-0.002 c 0.008,-0.008 0.0204,-0.0284 0.0332,-0.0586 0.14776,-0.34741 0.0491,-0.75327 0.0538,-1.13086 z m -610.343204,60.375 v 7.89844 h 2.378187 c -0.009,-0.4112 -0.0096,-0.82171 -0.0032,-1.23047 0.01402,-1.7152 0.02732,-3.4313 0.04272,-5.14649 -0.158316,-0.0873 -0.317274,-0.17619 -0.475007,-0.26953 -0.720763,-0.42652 -1.363733,-0.84209 -1.942766,-1.25195 z" />
    </clipPath>
  </defs>
  <g
     inkscape:label="Layer 1"
     inkscape:groupmode="layer"
     id="layer1">
    <rect
       style="fill:#c8c8c8;fill-opacity:1"
       id="rect2"
       width="512.43872"
       height="513.31622"
       x="0"
       y="0"
       clip-path="url(#clipPath61)" />
    <path
       style="fill:none;stroke:#1e1e1e;stroke-width:18.1514;stroke-dasharray:none;stroke-opacity:1"
       d="M 66.729216,485.21437 C 420.24884,-68.748292 460.26647,67.329902 517.84156,117.41422 572.7118,165.14561 626.47933,270.05816 626.47933,270.05816 L 596.11634,603.59358 63.802788,577.22841 Z"
       id="path2"
       clip-path="url(#clipPath8)"
       transform="translate(-0.87746358,25.446444)"
       sodipodi:nodetypes="cscccc" />
    <rect
       style="display:none;fill:#1a1a1a"
       id="rect2-8"
       width="512.43872"
       height="32.466179"
       x="-0.089974158"
       y="483.44299" />
    <rect
       style="fill:none;stroke:#be7124;stroke-width:21.8862;stroke-dasharray:43.7724, 21.8862;stroke-dashoffset:142.26;stroke-opacity:1"
       id="rect4"
       width="706.63599"
       height="71.754372"
       x="-67.263657"
       y="493.78311"
       clip-path="url(#clipPath27)"
       transform="matrix(1.3776392,0,0,0.73762462,-163.50804,81.934688)" />
    <path
       style="fill:none;stroke:#1e1e1e;stroke-width:19.4345;stroke-dasharray:none;stroke-dashoffset:142.26;stroke-opacity:1"
       d="M 347.93441,130.12137 C 319.64922,76.366578 326.15863,35.121909 337.37506,29.734646 c 6.45443,-3.100069 89.72231,58.017864 89.72231,58.017864 l -38.94039,13.51246 z"
       id="path123"
       sodipodi:nodetypes="csccc" />
  </g>
</svg>
